v -0.251181 0.162692 -0.105171
vn -0.670956 -3.54457e-009 -0.741497
v -0.135623 -1 0.0111317
vn 0 -1 0
v 0.141558 1 0.00771336
vn -6.58606e-008 1 7.74471e-008
v -0.0100701 0.643939 0.105171
vn -4.86302e-009 2.97233e-008 1
v 0.269307 1 -0.105171
vn -2.0728e-007 0.729094 -0.684414
v -0.269307 1 0.105171
vn 1.30268e-007 0.751386 0.659863
v 0.25118 -0.488076 -0.105171
vn 0.727409 -1.23528e-008 -0.686204
v -0.251181 -0.650769 -0.105171
vn -0.373804 0.218968 -0.90129
v 0.538614 -0.825384 -0.105171
vn 0.508771 0 -0.860902
v 0.25118 -2.08616e-007 0.105171
vn 0.615073 -2.38188e-008 0.78847
v -0.251181 -2.08616e-007 0.105171
vn -0.655529 -1.17912e-008 0.75517
v -0.538614 0.650768 -0.105171
vn -0.602457 -0.454 -0.656453
v -0.324028 -0.883778 0.105171
vn -6.80829e-010 -3.43e-008 1
v -0.251181 -0.162692 0.105171
vn -0.657143 0 0.753766
v 0.25118 -0.162692 0.105171
vn 0.686862 3.94353e-008 0.726788
v -0.251181 0.488076 0.105171
vn -0.629745 -1.15407e-008 0.776802
v 0.0200502 -0.628992 0.105171
vn -1.33267e-008 1.67385e-008 1
v 0.25118 0.650768 0.105171
vn 0.320626 -0.272991 0.907015
v -0.251181 0.162692 0.105171
vn -0.685376 -4.41821e-026 0.72819
v -0.0910054 0.793433 0.105171
vn -9.5903e-009 -1.76814e-008 1
v -0.00500156 0.00558219 0.105171
vn 6.80879e-009 3.28325e-008 1
v -0.251181 -0.325384 -0.105171
vn -0.499046 -1.26661e-011 -0.866575
v -0.0643336 -0.876261 0.105171
vn 7.95286e-009 -3.11067e-008 1
v 0.25118 -0.162692 -0.105171
vn 0.767885 4.26461e-008 -0.640588
v 0.25118 -2.08616e-007 -0.105171
vn 0.727268 -5.82846e-008 -0.686353
v 0.25118 0.650768 -0.105171
vn 0.222801 -0.19593 -0.954972
v -0.269307 -1 0.105171
vn 3.30301e-009 -0.704083 0.710118
v 0.25118 0.488076 -0.105171
vn 0.763093 0 -0.646288
v -0.538614 0.825384 -0.105171
vn -0.445646 1.30089e-008 -0.895209
v 0.25118 -0.650769 -0.105171
vn 0.326398 0.288329 -0.900184
v -0.251181 0.650768 -0.105171
vn -0.289744 -0.161552 -0.943371
v -0.251181 -0.488076 -0.105171
vn -0.70133 0 -0.712837
v 0.538614 1 -0.105171
vn 0.605951 0.452689 -0.654137
v -0.251181 0.488076 -0.105171
vn -0.692421 0 -0.721494
v -2.08616e-007 1 -0.105171
vn -1.3293e-007 0.600607 -0.799544
v 0.25118 -0.325384 0.105171
vn 0.67294 -4.23827e-010 0.739697
v -0.538614 -0.650769 -0.105171
vn -0.403164 0.684708 -0.607153
v 0.134653 -1 0.105171
vn 0 -0.933265 0.359189
v 0.269307 -1 -0.105171
vn 1.41186e-008 -0.622554 -0.782577
v -2.08616e-007 -1 -0.105171
vn 0 -0.598356 -0.80123
v -0.538614 -0.825384 -0.105171
vn -0.581652 9.14741e-008 -0.813437
v 0.25118 0.325384 0.105171
vn 0.663576 2.28524e-008 0.748109
v 0.269307 -1 0.105171
vn 1.3136e-008 -0.615914 0.787814
v 0.0022083 -0.301867 0.105171
vn -2.69193e-008 6.06347e-010 1
v -0.538614 -1 0.105171
vn -0.585685 -0.440327 0.680504
v -0.538614 0.825384 0.105171
vn -0.603185 -1.57908e-008 0.797602
v 0.146124 -0.826166 0.105171
vn 2.09957e-008 -1.55694e-009 1
v 0.25118 -0.325384 -0.105171
vn 0.850987 6.44954e-010 -0.525187
v -0.538614 1 0.105171
vn -0.441863 0.652324 0.615818
v -0.394897 0.650768 0.105171
vn -1.01187e-007 -0.806949 0.590621
v -0.273462 0.828761 0.105171
vn 5.1544e-008 -3.24056e-008 1
v 0.0105156 0.470349 0.105171
vn -9.00544e-009 -6.09435e-010 1
v -0.00609801 -0.470285 0.105171
vn -3.88974e-009 -2.77996e-008 1
v -0.412318 -1 0.00486052
vn 0 -1 0
v 0.25118 -0.488076 0.105171
vn 0.594926 -1.21463e-008 0.80378
v -0.538614 -0.650769 0.105171
vn -0.674089 0.505912 0.538198
v 0.25118 0.325384 -0.105171
vn 0.848106 8.31918e-009 -0.529827
v 0.424657 0.650768 0.00173828
vn 0 -1 0
v 0.00966354 0.154029 0.105171
vn -4.58726e-011 -1.58917e-008 1
v 0.000196037 -0.143882 0.105171
vn -2.70249e-008 1.49484e-008 1
v -0.403961 1 0.105171
vn -2.24969e-007 0.783556 0.621321
v -2.08616e-007 -1 0.105171
vn 1.02706e-008 -0.727348 0.686269
v -0.538614 0.650768 0.105171
vn -0.409349 -0.685142 0.602507
v 0.269307 1 0.105171
vn -2.23015e-007 0.763863 0.645378
v -0.251181 -0.325384 0.105171
vn -0.653242 0 0.757149
v -0.538614 -1 -0.105171
vn -0.417408 -0.685032 -0.597078
v 0.538614 0.650768 -0.105171
vn 0.685281 -0.536612 -0.49238
v -0.417019 0.650768 -0.00807399
vn -9.12105e-024 -1 0
v -0.251181 0.325384 0.105171
vn -0.666723 2.33021e-008 0.745306
v 0.25118 0.488076 0.105171
vn 0.656235 0 0.754556
v -0.251181 -0.650769 0.105171
vn -0.341205 0.174553 0.92364
v 0.426106 -1 0.00239828
vn 0 -1 0
v 0.25118 0.162692 0.105171
vn 0.557244 -2.21201e-008 0.830349
v 0.538614 1 0.105171
vn 0.432261 0.625703 0.649343
v 0.401948 -0.772216 0.105171
vn -6.70833e-009 -1.35152e-008 1
v -0.251181 -0.162692 -0.105171
vn -0.622724 1.27887e-008 -0.782442
v -0.132728 0.104698 0.105171
vn 3.11702e-008 1.0834e-009 1
v 0.424657 -0.650769 -0.00173828
vn 0 1 0
v -0.426098 1 0.00245187
vn -4.97059e-023 1 -4.97059e-024
v -0.251181 0.650768 0.105171
vn -0.351595 -0.199404 0.914669
v -0.251181 -2.08616e-007 -0.105171
vn -0.646937 -2.24308e-008 -0.762544
v -0.538614 -0.825384 0.105171
vn -0.584099 1.16056e-008 0.811682
v -0.00165614 0.308327 0.105171
vn -1.56917e-008 4.61117e-009 1
v 0.538614 -0.825384 0.105171
vn 0.595886 0 0.803069
v 0.386093 0.796221 0.105171
vn -1.52002e-008 1.47297e-009 1
v -0.269307 -1 -0.105171
vn 0 -0.855166 -0.518354
v -0.269307 1 -0.105171
vn 8.31749e-008 0.556555 -0.830811
v 0.25118 0.162692 -0.105171
vn 0.728422 1.5402e-008 -0.685129
v 0.538614 0.825384 -0.105171
vn 0.317533 -8.92418e-011 -0.948247
v 0.538614 -1 -0.105171
vn 0.684375 -0.512463 -0.518664
v -0.134654 1 0.105171
vn -1.46382e-008 0.582588 0.812767
v 0.538614 -1 0.105171
vn 0.429835 -0.616717 0.659471
v 0.426357 1 0.000926158
vn 3.08034e-007 1 5.08079e-024
v 0.538614 0.650768 0.105171
vn 0.452081 -0.67974 0.577561
v -0.251181 -0.488076 0.105171
vn -0.709558 1.15577e-008 0.704647
v -0.417019 -0.650769 0.00807399
vn -9.12105e-024 1 0
v -0.538614 1 -0.105171
vn -0.619432 0.459474 -0.636543
v 0.538614 0.825384 0.105171
vn 0.563469 0 0.826137
v 0.14125 0.818514 0.105171
vn -2.34304e-008 -2.19841e-009 1
v -2.08616e-007 1 0.105171
vn -7.99842e-008 0.858186 0.513338
v -0.251181 0.325384 -0.105171
vn -0.827016 1.0151e-008 -0.562178
v 0.538614 -0.650769 -0.105171
vn 0.707127 0.540212 -0.456225
v 0.538614 -0.650769 0.105171
vn 0.339696 0.51914 0.784283
v 0.25118 -0.650769 0.105171
vn 0.334797 0.295748 0.894675
v -0.394897 -0.650769 -0.105171
vn -1.01924e-007 0.812825 -0.582507
v -0.403961 -1 -0.105171
vn -1.39112e-008 -0.656371 -0.754438
v -0.141838 -0.520437 0.105171
vn 1.53295e-008 -2.08163e-008 1
v -0.394897 -0.650769 0.105171
vn -1.13074e-007 0.742129 0.670257
v -0.129359 0.371565 0.105171
vn -4.39493e-024 -3.51595e-024 1
v 0.134351 0.598956 0.105171
vn -1.95044e-008 1.80755e-008 1
v -0.136421 -0.206073 0.105171
vn -1.37552e-008 8.10873e-009 1
v -0.13285 -0.0473673 0.105171
vn 0 0 1
v 0.133275 -0.369094 0.105171
vn 1.41528e-008 -2.60242e-008 1
v -0.136173 0.23532 0.105171
vn 3.03231e-008 1.62759e-008 1
v 0.109718 -0.0815661 0.105171
vn 1.64708e-009 3.42456e-008 1
v 0.130452 0.0470358 0.105171
vn -2.28108e-008 2.09628e-008 1
v -0.137129 0.5335 0.105171
vn 1.22995e-008 8.4553e-009 1
v -0.131822 -0.36783 0.105171
vn -1.75438e-008 7.13935e-009 1
v 0.131583 0.273519 0.105171
vn -3.07127e-008 8.92907e-009 1
v -0.394897 0.650768 -0.105171
vn -1.16984e-007 -0.846311 -0.532689
v 0.25118 0.569459 -0.0520871
vn 1 0 0
v 0.394897 0.650768 -0.105171
vn 1.4568e-008 -0.548396 -0.836219
v 0.394897 0.650768 0.105171
vn 0 -0.741417 0.671044
v 0.394897 -0.650769 -0.105171
vn 0 0.735913 -0.677076
v 0.394897 -0.650769 0.105171
vn 0 0.800795 0.598938
v 0.137391 -0.233335 0.105171
vn 1.53669e-008 8.75999e-009 1
v -0.403961 -1 0.105171
vn -5.31188e-009 -0.462679 0.886526
v 0.145615 0.432504 0.105171
vn -1.14983e-008 4.31877e-009 1
v 0.142358 -0.61165 0.105171
vn 0 0 1
v -0.134654 -1 0.105171
vn -3.37503e-009 -0.4315 0.902113
v -0.538614 0.650768 0
vn -0.829321 -0.558773 0
v 0.538614 0.650768 0
vn 0.844486 -0.535577 0
v 0.538614 -1 0
vn 0.846604 -0.532224 0
v -0.538614 -1 0
vn -0.820659 -0.571419 1.14122e-007
v 0.538614 1 0
vn 0.848065 0.529893 0
v -0.538614 1 0
vn -0.848741 0.528809 0
v -0.538614 -0.650769 0
vn -0.830556 0.556935 -1.11006e-007
v 0.538614 -0.650769 0
vn 0.843545 0.537059 0
v -0.148682 -0.739558 0.105171
vn 2.85373e-009 5.28221e-008 1
v 0.461016 -0.896764 0.105171
vn -2.40875e-008 -2.12784e-010 1
v 0.40396 1 -0.105171
vn 1.24366e-007 0.863409 -0.504505
v 0.40396 1 0.105171
vn 1.10892e-007 0.753323 0.65765
v -0.403961 1 -0.105171
vn -2.44484e-007 0.861399 -0.507929
v -0.251181 -0.550326 -0.0115028
vn -1 0 0
v 0.40396 -1 -0.105171
vn -1.1876e-008 -0.765604 -0.643313
v 0.40396 -1 0.105171
vn -1.27608e-008 -0.727595 0.686007
v 0.538614 0.914282 0.0545548
vn 1 0 0
v 0.134653 1 0.105171
vn -1.49629e-007 0.610076 0.792343
v -0.538614 -0.914392 -0.0586811
vn -1 -1.65726e-007 -2.75155e-007
v -0.134654 1 -0.105171
vn -2.22054e-007 0.766562 -0.642171
v 0.134653 1 -0.105171
vn 9.64159e-008 0.746864 -0.664977
v 0.134653 -1 -0.105171
vn 0 -0.930558 -0.366144
v -0.134654 -1 -0.105171
vn 0 -0.768651 -0.639669
v -0.18335 0.902406 0.105171
vn 2.22318e-008 -2.74916e-008 1
v -0.251181 0.650768 0
vn -0.287412 -0.957807 -4.86713e-023
v 0.25118 0.650768 0
vn 0.354063 -0.935222 0
v -0.251181 -0.650769 0
vn -0.308633 0.951181 4.83346e-023
v 0.25118 -0.650769 0
vn 0.767228 0.641374 0
v 0.25118 0.217326 0.00938113
vn 1 0 0
v -0.251181 0.27293 0.00518928
vn -1 0 0
v 0.25118 -0.276068 0.000706822
vn 1 0 0
v -0.251181 -0.214971 0.0018866
vn -1 0 0
v -0.251181 -0.0524026 0.00804447
vn -1 0 0
v -0.251181 0.110274 0.000322104
vn -1 0 0
v 0.25118 -0.0515691 -0.000185281
vn 1 -4.83149e-024 1.44945e-023
v 0.25118 0.0814529 0.00984115
vn 1 -6.90528e-008 4.5559e-024
v 0.25118 -0.434025 0.00920057
vn 1 0 0
v -0.251181 -0.375821 0.00506964
vn -1 0 0
v -0.251181 0.43305 0.00290098
vn -1 0 0
v 0.25118 0.37498 0.000359595
vn 1 0 0
v -0.0917143 -0.616981 0.105171
vn 1.20059e-008 1.20529e-008 1
v 0.333139 -0.89496 0.105171
vn -1.25345e-024 0 1
v 0.538614 -0.736523 0.0543332
vn 1 0 0
v 0.270116 -0.80201 0.105171
vn -4.51548e-009 -2.12889e-008 1
v 0.456071 0.907866 0.105171
vn 0 0 1
v 0.0738023 0.372293 0.105171
vn -2.10168e-008 2.49257e-008 1
v -0.135742 1 0.00096884
vn 0 1 7.8623e-008
v -0.178874 -0.849674 0.105171
vn 5.51452e-010 -2.89292e-008 1
v 0.103145 -0.509455 0.105171
vn -1.61446e-009 -2.3346e-008 1
v 0.25118 0.569611 0.0485188
vn 1 0 0
v 0.133744 0.156559 0.105171
vn -5.9349e-008 -6.54971e-008 1
v -0.146675 0.67996 0.105171
vn 2.33371e-008 3.1342e-008 1
v 0.259872 0.812998 0.105171
vn -4.1342e-008 1.3782e-009 1
v 0.538614 -0.914282 0.0543332
vn 1 0 0
v -0.423231 -0.842151 0.105171
vn -2.97847e-008 -3.99138e-010 1
v 0.0387799 0.781924 0.105171
vn 2.99529e-008 -1.28857e-008 1
v 0.326982 0.907098 0.105171
vn -1.18405e-008 -1.81991e-008 1
v 0.0818806 -0.73197 0.105171
vn 4.12871e-008 4.26328e-009 1
v 0.0732698 0.913295 0.105171
vn 1.82758e-008 -5.2061e-008 1
v 0.0682341 -0.915995 0.105171
vn 3.41238e-008 -1.06359e-008 1
v -0.269417 -1 0.00399732
vn 0 -1 0
v -0.44651 -0.736817 0.105171
vn -2.79891e-008 2.93406e-008 1
v 0.202489 0.915676 0.105171
vn -3.12182e-008 -6.01538e-008 1
v -0.0459501 0.905363 0.105171
vn 9.82072e-010 -3.52904e-008 1
v 0.465463 0.720632 0.105171
vn 0 0 1
v -0.463069 0.736818 0.105171
vn 0 0 1
v 0.206327 -0.916412 0.105171
vn 8.57382e-009 2.05221e-008 1
v -0.3342 0.914312 0.105171
vn 3.55871e-008 -1.0102e-009 1
v 0.25118 -0.162825 0.00148129
vn 1 1.3275e-007 1.56866e-023
v 0.286266 1 0.0039037
vn -2.84202e-007 1 -1.40631e-023
v -0.277687 1 -0.00219206
vn -1.40243e-007 1 1.38792e-023
v 0.277311 -1 -0.00325759
vn 0 -1 0
v 0.25118 0.493739 -0.00145004
vn 1 0 0
v 0.538614 0.825386 -0.0103226
vn 1 0 0
v -0.538614 0.825373 -0.00710325
vn -1 0 0
v -0.538614 -0.82538 0.00627645
vn -1 5.56316e-008 9.23652e-008
v 0.538614 -0.825387 -0.00906728
vn 1 0 0
v -0.000730344 1 -0.0099582
vn -7.66161e-008 1 2.78859e-007
v 2.87385e-006 -1 -0.0119732
vn 0 -1 0
v -0.330861 0.739083 0.105171
vn 1.88456e-008 2.35907e-009 1
v 0.538614 0.736523 0.0545548
vn 1 0 0
v -0.538614 0.736295 0.0572403
vn -1 0 0
v -0.251181 0.557879 0.0014061
vn -1 0 0
v -0.466611 0.913438 0.105171
vn -2.20899e-008 7.17149e-010 1
v 0.202295 -0.729869 0.105171
vn -8.0905e-009 -2.17436e-008 1
v 0.196239 0.72819 0.105171
vn -4.207e-008 6.00215e-008 1
v -0.0202926 -0.734786 0.105171
vn 8.34557e-009 5.06361e-008 1
v -0.409583 0.826804 0.105171
vn 4.52754e-010 -4.23455e-008 1
v 0.309369 0.725345 0.105171
vn -9.9168e-009 2.76746e-008 1
v -0.286805 -0.749528 0.105171
vn -1.32098e-008 3.29036e-008 1
v 0.0476009 -0.823907 0.105171
vn 7.24798e-008 -1.01472e-008 1
v 0.0934508 0.698208 0.105171
vn -3.2649e-008 4.83933e-008 1
v -0.538614 -0.736296 -0.0586811
vn -1 1.65731e-007 -2.75163e-007
v -0.538614 0.914281 0.0572403
vn -1 0 0
v -0.208224 0.759138 0.105171
vn 4.21651e-008 6.2078e-009 1
v 0.3165 -0.714801 0.105171
vn 0 0 1
# mm_gid 0
f 137//137 96//96 37//37 
f 28//28 121//121 203//203 
f 96//96 108//108 157//157 
f 131//131 68//68 63//63 
f 68//68 120//120 155//155 
f 207//207 173//173 84//84 
f 89//89 33//33 204//204 
f 2//2 191//191 86//86 
f 73//73 10//10 166//166 
f 1//1 81//81 164//164 
f 24//24 25//25 165//165 
f 76//76 22//22 162//162 
f 34//34 101//101 169//169 
f 54//54 191//191 27//27 
f 156//156 180//180 121//121 
f 35//35 150//150 208//208 
f 9//9 102//102 207//207 
f 2//2 27//27 191//191 
f 159//159 57//57 170//170 
f 40//40 152//152 209//209 
f 65//65 14//14 162//162 
f 158//158 30//30 7//7 
f 3//3 100//100 148//148 
f 79//79 49//49 61//61 
f 2//2 62//62 130//130 
f 72//72 92//92 146//146 
f 148//148 64//64 3//3 
f 213//213 31//31 34//34 
f 5//5 200//200 141//141 
f 3//3 5//5 151//151 
f 91//91 100//100 177//177 
f 38//38 62//62 209//209 
f 213//213 80//80 155//155 
f 70//70 203//203 180//180 
f 167//167 48//48 161//161 
f 69//69 16//16 169//169 
f 43//43 202//202 146//146 
f 34//34 169//169 213//213 
f 93//93 33//33 141//141 
f 54//54 66//66 106//106 
f 163//163 76//76 162//162 
f 6//6 201//201 61//61 
f 168//168 32//32 144//144 
f 58//58 94//94 123//123 
f 95//95 144//144 71//71 
f 28//28 26//26 121//121 
f 78//78 102//102 124//124 
f 68//68 12//12 120//120 
f 96//96 56//56 108//108 
f 74//74 98//98 147//147 
f 63//63 46//46 212//212 
f 37//37 41//41 223//223 
f 103//103 84//84 173//173 
f 161//161 24//24 199//199 
f 25//25 88//88 166//166 
f 160//160 1//1 164//164 
f 93//93 74//74 135//135 
f 170//170 28//28 203//203 
f 54//54 45//45 134//134 
f 87//87 143//143 201//201 
f 39//39 145//145 202//202 
f 157//157 71//71 144//144 
f 89//89 204//204 67//67 
f 150//150 87//87 177//177 
f 29//29 205//205 97//97 
f 31//31 155//155 120//120 
f 50//50 63//63 68//68 
f 11//11 19//19 164//164 
f 105//105 37//37 96//96 
f 71//71 157//157 108//108 
f 58//58 67//67 132//132 
f 156//156 58//58 123//123 
f 40//40 209//209 153//153 
f 132//132 67//67 204//204 
f 10//10 15//15 165//165 
f 82//82 206//206 45//45 
f 39//39 202//202 152//152 
f 35//35 208//208 151//151 
f 9//9 207//207 90//90 
f 158//158 78//78 124//124 
f 78//78 103//103 138//138 
f 64//64 142//142 200//200 
f 79//79 97//97 136//136 
f 54//54 27//27 127//127 
f 72//72 90//90 133//133 
f 58//58 122//122 67//67 
f 206//206 223//223 41//41 
f 205//205 224//224 136//136 
f 78//78 125//125 103//103 
f 204//204 147//147 98//98 
f 207//207 184//184 133//133 
f 206//206 149//149 134//134 
f 205//205 212//212 46//46 
f 205//205 131//131 212//212 
f 157//157 144//144 8//8 
f 94//94 132//132 211//211 
f 70//70 180//180 18//18 
f 92//92 133//133 184//184 
f 136//136 97//97 205//205 
f 66//66 134//134 149//149 
f 204//204 211//211 132//132 
f 204//204 135//135 147//147 
f 133//133 90//90 207//207 
f 49//49 136//136 224//224 
f 16//16 213//213 169//169 
f 206//206 137//137 223//223 
f 55//55 158//158 167//167 
f 207//207 138//138 173//173 
f 93//93 141//141 200//200 
f 93//93 142//142 74//74 
f 79//79 143//143 97//97 
f 79//79 61//61 201//201 
f 54//54 106//106 86//86 
f 72//72 145//145 90//90 
f 72//72 146//146 202//202 
f 54//54 127//127 45//45 
f 74//74 147//147 135//135 
f 200//200 3//3 64//64 
f 2//2 130//130 27//27 
f 66//66 149//149 41//41 
f 91//91 177//177 6//6 
f 3//3 151//151 208//208 
f 38//38 152//152 202//202 
f 2//2 153//153 209//209 
f 134//134 45//45 206//206 
f 201//201 177//177 87//87 
f 156//156 18//18 180//180 
f 7//7 167//167 158//158 
f 73//73 159//159 42//42 
f 57//57 159//159 88//88 
f 69//69 160//160 19//19 
f 1//1 160//160 101//101 
f 36//36 161//161 15//15 
f 24//24 161//161 48//48 
f 162//162 22//22 168//168 
f 11//11 163//163 14//14 
f 76//76 163//163 81//81 
f 164//164 81//81 163//163 
f 165//165 15//15 199//199 
f 166//166 10//10 165//165 
f 166//166 88//88 159//159 
f 55//55 167//167 36//36 
f 48//48 167//167 7//7 
f 65//65 168//168 95//95 
f 32//32 168//168 22//22 
f 169//169 101//101 160//160 
f 42//42 170//170 70//70 
f 28//28 170//170 57//57 
f 103//103 173//173 138//138 
f 82//82 56//56 206//206 
f 92//92 184//184 84//84 
f 160//160 164//164 19//19 
f 166//166 159//159 73//73 
f 163//163 162//162 14//14 
f 161//161 199//199 15//15 
f 165//165 199//199 24//24 
f 93//93 200//200 142//142 
f 3//3 200//200 5//5 
f 201//201 6//6 177//177 
f 79//79 201//201 143//143 
f 38//38 202//202 43//43 
f 72//72 202//202 145//145 
f 54//54 86//86 191//191 
f 2//2 86//86 153//153 
f 213//213 16//16 80//80 
f 32//32 8//8 144//144 
f 168//168 144//144 95//95 
f 158//158 55//55 104//104 
f 203//203 121//121 180//180 
f 170//170 203//203 70//70 
f 167//167 161//161 36//36 
f 162//162 168//168 65//65 
f 204//204 98//98 211//211 
f 135//135 204//204 33//33 
f 131//131 205//205 12//12 
f 205//205 46//46 224//224 
f 206//206 41//41 149//149 
f 137//137 206//206 56//56 
f 207//207 84//84 184//184 
f 138//138 207//207 102//102 
f 3//3 208//208 100//100 
f 208//208 150//150 177//177 
f 2//2 209//209 62//62 
f 38//38 209//209 152//152 
f 169//169 160//160 69//69 
f 159//159 170//170 42//42 
f 166//166 165//165 25//25 
f 164//164 163//163 11//11 
f 93//93 135//135 33//33 
f 94//94 211//211 98//98 
f 58//58 132//132 94//94 
f 79//79 136//136 49//49 
f 208//208 177//177 100//100 
f 68//68 131//131 12//12 
f 63//63 212//212 131//131 
f 155//155 80//80 50//50 
f 156//156 26//26 122//122 
f 157//157 8//8 105//105 
f 96//96 137//137 56//56 
f 213//213 155//155 31//31 
f 158//158 104//104 125//125 
f 72//72 133//133 92//92 
f 54//54 134//134 66//66 
f 78//78 138//138 102//102 
f 156//156 122//122 58//58 
f 158//158 125//125 78//78 
f 156//156 121//121 26//26 
f 155//155 50//50 68//68 
f 157//157 105//105 96//96 
f 37//37 223//223 137//137 
f 156//156 123//123 18//18 
f 49//49 224//224 46//46 
f 158//158 124//124 30//30 
f 29//29 12//12 205//205 
# mm_gid 10
f 59//59 119//119 83//83 
f 42//42 119//119 73//73 
f 95//95 118//118 65//65 
f 44//44 118//118 53//53 
f 117//117 4//4 182//182 
f 73//73 116//116 10//10 
f 21//21 116//116 59//59 
f 115//115 10//10 116//116 
f 114//114 83//83 109//109 
f 114//114 19//19 77//77 
f 113//113 53//53 179//179 
f 14//14 112//112 11//11 
f 21//21 112//112 60//60 
f 65//65 111//111 14//14 
f 60//60 111//111 44//44 
f 52//52 110//110 4//4 
f 18//18 110//110 70//70 
f 109//109 52//52 117//117 
f 13//13 220//220 185//185 
f 71//71 107//107 95//95 
f 53//53 107//107 171//171 
f 61//61 214//214 198//198 
f 47//47 197//197 174//174 
f 71//71 108//108 220//220 
f 111//111 65//65 118//118 
f 6//6 61//61 198//198 
f 116//116 73//73 181//181 
f 63//63 50//50 196//196 
f 51//51 210//210 225//225 
f 110//110 52//52 128//128 
f 50//50 210//210 196//196 
f 77//77 11//11 112//112 
f 107//107 71//71 171//171 
f 52//52 4//4 117//117 
f 17//17 129//129 179//179 
f 118//118 95//95 107//107 
f 16//16 69//69 109//109 
f 55//55 36//36 113//113 
f 84//84 75//75 140//140 
f 19//19 11//11 77//77 
f 69//69 19//19 114//114 
f 59//59 83//83 114//114 
f 60//60 44//44 126//126 
f 112//112 14//14 111//111 
f 36//36 15//15 126//126 
f 15//15 10//10 115//115 
f 82//82 185//185 192//192 
f 80//80 182//182 225//225 
f 82//82 192//192 56//56 
f 80//80 16//16 117//117 
f 123//123 85//85 219//219 
f 43//43 146//146 172//172 
f 85//85 175//175 187//187 
f 18//18 219//219 216//216 
f 119//119 176//176 83//83 
f 20//20 194//194 154//154 
f 100//100 194//194 189//189 
f 64//64 193//193 187//187 
f 13//13 178//178 220//220 
f 99//99 193//193 189//189 
f 20//20 154//154 225//225 
f 119//119 128//128 176//176 
f 49//49 46//46 214//214 
f 119//119 59//59 181//181 
f 62//62 190//190 23//23 
f 17//17 171//171 217//217 
f 83//83 52//52 109//109 
f 44//44 53//53 113//113 
f 104//104 55//55 129//129 
f 13//13 27//27 178//178 
f 216//216 222//222 110//110 
f 108//108 56//56 192//192 
f 98//98 74//74 175//175 
f 98//98 85//85 195//195 
f 104//104 215//215 226//226 
f 216//216 99//99 222//222 
f 21//21 59//59 77//77 
f 23//23 221//221 217//217 
f 20//20 4//4 186//186 
f 20//20 225//225 182//182 
f 47//47 190//190 197//197 
f 47//47 215//215 188//188 
f 125//125 75//75 103//103 
f 123//123 94//94 195//195 
f 125//125 104//104 226//226 
f 126//126 44//44 113//113 
f 126//126 15//15 115//115 
f 185//185 127//127 13//13 
f 52//52 83//83 176//176 
f 70//70 128//128 42//42 
f 129//129 55//55 179//179 
f 178//178 130//130 23//23 
f 139//139 23//23 217//217 
f 139//139 71//71 220//220 
f 140//140 75//75 172//172 
f 84//84 140//140 92//92 
f 142//142 64//64 187//187 
f 140//140 146//146 92//92 
f 148//148 100//100 189//189 
f 91//91 6//6 154//154 
f 38//38 43//43 197//197 
f 51//51 154//154 198//198 
f 91//91 154//154 194//194 
f 218//218 214//214 46//46 
f 218//218 198//198 214//214 
f 218//218 210//210 51//51 
f 139//139 171//171 71//71 
f 172//172 75//75 174//174 
f 140//140 172//172 146//146 
f 109//109 117//117 16//16 
f 174//174 75//75 226//226 
f 172//172 174//174 197//197 
f 110//110 18//18 216//216 
f 98//98 175//175 85//85 
f 142//142 175//175 74//74 
f 116//116 21//21 115//115 
f 52//52 176//176 128//128 
f 114//114 77//77 59//59 
f 111//111 118//118 44//44 
f 130//130 178//178 27//27 
f 139//139 178//178 23//23 
f 113//113 179//179 55//55 
f 114//114 109//109 69//69 
f 112//112 111//111 60//60 
f 220//220 108//108 192//192 
f 126//126 115//115 60//60 
f 128//128 119//119 42//42 
f 118//118 107//107 53//53 
f 126//126 113//113 36//36 
f 116//116 181//181 59//59 
f 119//119 181//181 73//73 
f 77//77 112//112 21//21 
f 20//20 182//182 4//4 
f 117//117 182//182 80//80 
f 183//183 85//85 187//187 
f 183//183 99//99 216//216 
f 110//110 128//128 70//70 
f 129//129 17//17 188//188 
f 127//127 185//185 45//45 
f 4//4 110//110 222//222 
f 142//142 187//187 175//175 
f 183//183 187//187 193//193 
f 188//188 17//17 217//217 
f 129//129 188//188 215//215 
f 186//186 99//99 189//189 
f 148//148 189//189 193//193 
f 186//186 189//189 194//194 
f 190//190 47//47 221//221 
f 38//38 190//190 62//62 
f 63//63 196//196 46//46 
f 51//51 225//225 154//154 
f 148//148 193//193 64//64 
f 183//183 193//193 99//99 
f 91//91 194//194 100//100 
f 186//186 194//194 20//20 
f 98//98 195//195 94//94 
f 123//123 195//195 85//85 
f 218//218 196//196 210//210 
f 38//38 197//197 190//190 
f 172//172 197//197 43//43 
f 6//6 198//198 154//154 
f 80//80 210//210 50//50 
f 60//60 115//115 21//21 
f 27//27 13//13 127//127 
f 17//17 179//179 53//53 
f 49//49 214//214 61//61 
f 220//220 192//192 185//185 
f 174//174 215//215 47//47 
f 129//129 215//215 104//104 
f 186//186 222//222 99//99 
f 183//183 216//216 219//219 
f 62//62 23//23 130//130 
f 139//139 217//217 171//171 
f 188//188 217//217 221//221 
f 218//218 51//51 198//198 
f 218//218 46//46 196//196 
f 123//123 219//219 18//18 
f 183//183 219//219 85//85 
f 84//84 103//103 75//75 
f 82//82 45//45 185//185 
f 139//139 220//220 178//178 
f 188//188 221//221 47//47 
f 190//190 221//221 23//23 
f 53//53 171//171 17//17 
f 4//4 222//222 186//186 
f 80//80 225//225 210//210 
f 125//125 226//226 75//75 
f 174//174 226//226 215//215 
